<?xml version="1.0" encoding="utf-8"?>
<!-- Generator: Adobe Illustrator 23.1.0, SVG Export Plug-In . SVG Version: 6.00 Build 0)  -->
<svg version="1.1" id="Layer_1" xmlns="http://www.w3.org/2000/svg" xmlns:xlink="http://www.w3.org/1999/xlink" x="0px" y="0px"
	 viewBox="0 0 64 64" style="enable-background:new 0 0 64 64;" xml:space="preserve">
<style type="text/css">
	.st0{fill:#FFFFFF;}
</style>
<path class="st0" d="M61.2,10.6h-5.5V5.1c0-0.6-0.5-1.2-1.2-1.2c-0.6,0-1.2,0.5-1.2,1.2v5.5h-5.5c-0.6,0-1.2,0.5-1.2,1.2
	c0,0.6,0.5,1.2,1.2,1.2h5.5v5.5c0,0.6,0.5,1.2,1.2,1.2c0.6,0,1.2-0.5,1.2-1.2v-5.5h5.5c0.6,0,1.2-0.5,1.2-1.2S61.9,10.6,61.2,10.6z"
	/>
<path class="st0" d="M52,34.2v-5.2c0-2-1.5-3.7-3.5-4l-5-8.8c-0.5-1-1.4-1.6-2.5-1.9c-1.1-0.3-2.1-0.1-3.1,0.4L20.3,24.8h-3
	c-2.3,0-4.1,1.8-4.1,4.1v21.6c0,2.3,1.8,4.1,4.1,4.1h30.6c2.3,0,4.1-1.8,4.1-4.1v-5.2c1.1-0.5,1.8-1.6,1.8-2.9V37
	C53.8,35.8,53.1,34.7,52,34.2z M39.3,17c0.3-0.2,0.6-0.2,1-0.1c0.3,0.1,0.6,0.3,0.8,0.6l4.2,7.4H25.9L39.3,17L39.3,17z M49.2,33.8
	h-4.9c-3.3,0-5.9,2.6-5.9,5.9s2.6,5.9,5.9,5.9h4.9v4.9c0,0.7-0.6,1.3-1.3,1.3H17.3c-0.7,0-1.3-0.6-1.3-1.3V28.9
	c0-0.7,0.6-1.3,1.3-1.3h30.6c0.7,0,1.3,0.6,1.3,1.3V33.8z M51,37v5.4c0,0.2-0.2,0.4-0.4,0.4h-6.3c-1.7,0-3.1-1.4-3.1-3.1
	s1.4-3.1,3.1-3.1h6.3C50.9,36.6,51,36.8,51,37z"/>
</svg>
