<?xml version="1.0" encoding="utf-8"?>
<!-- Generator: Adobe Illustrator 23.0.3, SVG Export Plug-In . SVG Version: 6.00 Build 0)  -->
<svg version="1.1" id="Layer_1" xmlns="http://www.w3.org/2000/svg" xmlns:xlink="http://www.w3.org/1999/xlink" x="0px" y="0px"
	 viewBox="0 0 64 64" style="enable-background:new 0 0 64 64;" xml:space="preserve">
<style type="text/css">
	.st0{fill:#2069C2;}
	.st1{fill:#C10F0F;stroke:#C10F0F;stroke-miterlimit:10;}
</style>
<path class="st0" d="M9.4,25.5h26.3c1,0,1.9-0.8,1.9-1.9s-0.8-1.9-1.9-1.9H9.4c-1,0-1.9,0.8-1.9,1.9S8.3,25.5,9.4,25.5z"/>
<path class="st0" d="M9.4,34.8h9.8c1,0,1.9-0.8,1.9-1.9S20.3,31,19.2,31H9.4c-1,0-1.9,0.8-1.9,1.9C7.5,34,8.3,34.8,9.4,34.8z"/>
<path class="st0" d="M9.4,64h9.5c1,0,1.9-0.8,1.9-1.9s-0.8-1.9-1.9-1.9H9.4c-1,0-1.9,0.8-1.9,1.9S8.3,64,9.4,64z"/>
<path class="st0" d="M45,15.3v5c0,1,0.8,1.9,1.9,1.9c1.1,0,1.9-0.8,1.9-1.9v-5c0-1-0.8-1.9-1.9-1.9C45.8,13.4,45,14.2,45,15.3z"/>
<g>
	<path class="st1" d="M63.4,27.4c0-0.1,0-0.1-0.1-0.2c0-0.1-0.1-0.1-0.1-0.2c0,0,0-0.1-0.1-0.1c0-0.1-0.1-0.1-0.1-0.1
		c-0.1-0.1-0.1-0.1-0.1-0.1c-0.1-0.1-0.1-0.1-0.1-0.1l-0.1-0.1c-0.1,0-0.1-0.1-0.1-0.1c-0.1-0.1-0.1-0.1-0.2-0.1l0,0
		c-0.1,0-0.1,0-0.2-0.1c-0.1,0-0.1,0-0.2,0c-0.1,0-0.1,0-0.2,0c0,0-0.1,0-0.1,0L27.3,38.2c-0.5,0.2-0.8,0.6-0.8,1.1s0.3,0.9,0.7,1.1
		l16,6.2l6.9,16c0.2,0.4,0.6,0.7,1.1,0.7h0.1c0.5,0,0.9-0.3,1-0.8l11-34.5c0-0.1,0-0.1,0-0.1c0-0.1,0-0.1,0-0.2
		C63.4,27.5,63.4,27.4,63.4,27.4z M57.8,30.3l-14,14l-12.7-4.8L57.8,30.3z M59.6,31.8l-8.6,27l-5.5-12.8L59.6,31.8z"/>
	<path class="st1" d="M39.5,50.3c-0.5-0.5-1.2-0.5-1.7,0l-11,11c-0.2,0.2-0.3,0.5-0.3,0.9c0,0.3,0.1,0.6,0.3,0.8
		c0.2,0.2,0.5,0.3,0.8,0.3s0.6-0.1,0.8-0.3l11-11C40,51.5,40,50.7,39.5,50.3z"/>
	<path class="st1" d="M40.9,55.8l-5.5,5.5c-0.5,0.5-0.5,1.2,0,1.7c0.2,0.2,0.5,0.3,0.8,0.3c0.3,0,0.6-0.1,0.8-0.3l5.5-5.5
		c0.5-0.5,0.5-1.2,0-1.7C42.2,55.3,41.4,55.3,40.9,55.8z"/>
	<path class="st1" d="M28.5,54.3l5.5-5.5c0.5-0.5,0.5-1.2,0-1.7s-1.2-0.5-1.7,0l-5.5,5.5c-0.2,0.2-0.3,0.5-0.3,0.9
		c0,0.3,0.1,0.6,0.3,0.8c0.2,0.2,0.5,0.3,0.8,0.3S28.3,54.5,28.5,54.3z"/>
</g>
<path class="st0" d="M17.5,60.3H5.6c-1,0-1.9-0.8-1.9-1.9V5.6c0-1,0.8-1.9,1.9-1.9h28.1v9.4c0,1,0.8,1.9,1.9,1.9H45v5.2h3.8v-9.3
	c0-1.5-0.6-2.9-1.6-4l-5.3-5.3c-1.1-1.1-2.5-1.6-4-1.6H5.6C2.5,0,0,2.5,0,5.6v52.8C0,61.5,2.5,64,5.6,64h11.9V60.3z M37.4,3.8
	L37.4,3.8c0.5,0,1.1-0.1,1.7,0.5l5.3,5.3c0.6,0.6,0.5,1.2,0.5,1.6h-7.5V3.8z"/>
<path class="st0" d="M9.4,44.1h9.8c1,0,1.9-0.8,1.9-1.9s-0.8-1.9-1.9-1.9H9.4c-1,0-1.9,0.8-1.9,1.9S8.3,44.1,9.4,44.1z"/>
</svg>
