<?xml version="1.0" encoding="utf-8"?>
<!-- Generator: Adobe Illustrator 23.0.3, SVG Export Plug-In . SVG Version: 6.00 Build 0)  -->
<svg version="1.1" id="Layer_1" xmlns="http://www.w3.org/2000/svg" xmlns:xlink="http://www.w3.org/1999/xlink" x="0px" y="0px"
	 viewBox="0 0 64 64" style="enable-background:new 0 0 64 64;" xml:space="preserve">
<style type="text/css">
	.st0{fill:#C10F0F;}
</style>
<path class="st0" d="M15.3,24.3v5.8h-0.4c-2.4,0-4.4,2-4.4,4.4v24.4c0,2.4,2,4.4,4.4,4.4h34.1c2.4,0,4.4-2,4.4-4.4V34.6
	c0-2.4-2-4.4-4.4-4.4h-0.1v-5.8c0-9.3-7.5-16.8-16.8-16.8C22.9,7.5,15.3,15.1,15.3,24.3L15.3,24.3z M34.6,47.9
	c-0.3,0.3-0.4,0.5-0.4,0.9c0,1.8,0,3.6,0,5.4c0,0.7-0.3,1.5-1,1.8c-1.6,0.8-3.1-0.3-3.1-1.8v0c0-1.8,0-3.6,0-5.4
	c0-0.4-0.1-0.6-0.4-0.8c-1.6-1.2-2.2-3.2-1.3-5c0.8-1.8,2.7-2.8,4.5-2.4c2,0.4,3.4,2,3.5,4.1C36.3,46,35.8,47.1,34.6,47.9L34.6,47.9
	z M22.7,24.3c0-5.2,4.2-9.4,9.4-9.4c5.2,0,9.4,4.2,9.4,9.4v5.8H22.7V24.3z M22.7,24.3"/>
</svg>
