<?xml version="1.0" encoding="utf-8"?>
<!-- Generator: Adobe Illustrator 23.0.3, SVG Export Plug-In . SVG Version: 6.00 Build 0)  -->
<svg version="1.1" id="Layer_1" xmlns="http://www.w3.org/2000/svg" xmlns:xlink="http://www.w3.org/1999/xlink" x="0px" y="0px"
	 viewBox="0 0 64 64" style="enable-background:new 0 0 64 64;" xml:space="preserve">
<style type="text/css">
	.st0{fill:#56AF08;}
</style>
<path class="st0" d="M63.6,24.6c-0.3-0.8-1-1.4-1.8-1.5l-19.2-2.7L33.9,2.9c-0.4-0.8-1.2-1.2-2-1.2c-0.9,0-1.6,0.5-2,1.3l-8.5,17.4
	L2.2,23.2c-0.8,0.1-1.5,0.7-1.8,1.5c-0.3,0.8,0,1.7,0.6,2.3l13.9,13.5l-3.2,19.1c-0.2,0.9,0.2,1.7,0.9,2.2c0.4,0.3,0.8,0.4,1.3,0.4
	c0.4,0,0.7-0.1,1-0.3L32.1,53l17.2,9c0.3,0.2,0.7,0.2,1,0.2c1.2,0,2.2-1,2.2-2.2c0-0.2,0-0.4-0.1-0.5l-3.3-19L63,26.9
	C63.7,26.3,63.9,25.4,63.6,24.6z M19.5,40.1c0.1-0.7-0.1-1.5-0.6-2L7.3,27l15.9-2.4c0.7-0.1,1.4-0.6,1.7-1.2L32,9l7.2,14.4
	c0.3,0.7,1,1.1,1.7,1.2l15.9,2.3L45.2,38.1c-0.5,0.5-0.8,1.3-0.6,2l2.8,15.8l-14.2-7.4c-0.6-0.3-1.4-0.3-2.1,0L16.8,56L19.5,40.1z"
	/>
</svg>
