<?xml version="1.0" encoding="utf-8"?>
<!-- Generator: Adobe Illustrator 24.3.0, SVG Export Plug-In . SVG Version: 6.00 Build 0)  -->
<svg version="1.1" id="Layer_1" xmlns="http://www.w3.org/2000/svg" xmlns:xlink="http://www.w3.org/1999/xlink" x="0px" y="0px"
	 viewBox="0 0 65 10" style="enable-background:new 0 0 65 10;" xml:space="preserve">
<style type="text/css">
	.st0{fill:#ABAAAA;}
</style>
<path class="st0" d="M64.5,4.5l-4.3-4.3c-0.3-0.3-0.7-0.3-1,0c-0.3,0.3-0.3,0.7,0,1c0,0,0,0,0,0l3.1,3.1H1C0.6,4.3,0.3,4.6,0.3,5
	c0,0.4,0.3,0.7,0.7,0.7c0,0,0,0,0,0h61.3l-3.1,3.1c-0.3,0.3-0.2,0.7,0,1c0.3,0.2,0.7,0.2,0.9,0l4.3-4.3c0.1-0.1,0.2-0.3,0.2-0.5
	C64.7,4.8,64.6,4.7,64.5,4.5z"/>
</svg>
