<?xml version="1.0" encoding="utf-8"?>
<!-- Generator: Adobe Illustrator 23.0.2, SVG Export Plug-In . SVG Version: 6.00 Build 0)  -->
<svg version="1.1" id="Layer_1" xmlns="http://www.w3.org/2000/svg" xmlns:xlink="http://www.w3.org/1999/xlink" x="0px" y="0px"
	 viewBox="0 0 64 64" style="enable-background:new 0 0 64 64;" xml:space="preserve">
<style type="text/css">
	.st0{fill:#FFFFFF;}
</style>
<g>
	<path class="st0" d="M32,53.5c1.5,0,2.6-1.2,2.6-2.6c0-1.5-1.2-2.6-2.6-2.6c-4.5,0-8.6-1.8-11.5-4.7c-2.9-2.9-4.7-7-4.7-11.5
		c0-1.5-1.2-2.6-2.6-2.6s-2.6,1.2-2.6,2.6c0,5.9,2.4,11.3,6.3,15.2C20.7,51.1,26.1,53.5,32,53.5"/>
	<path class="st0" d="M32,10.5c-1.5,0-2.6,1.2-2.6,2.6s1.2,2.6,2.6,2.6c4.5,0,8.6,1.8,11.5,4.7s4.7,7,4.7,11.5
		c0,1.5,1.2,2.6,2.6,2.6s2.6-1.2,2.6-2.6c0-5.9-2.4-11.3-6.3-15.2C43.3,12.9,37.9,10.5,32,10.5"/>
	<path class="st0" d="M20.5,32C20.5,32,20.7,32,20.5,32"/>
	<path class="st0" d="M32,20.5L32,20.5L32,20.5c3.2,0,6.1,1.3,8,3.3c2.1,2.1,3.3,4.9,3.3,8c0,1.5-1.2,2.6-2.6,2.6s-2.6-1.2-2.6-2.6
		c0-1.7-0.7-3.3-1.8-4.4c-1.2-1.2-2.6-1.8-4.4-1.8s-3.3,0.7-4.4,1.8c-2.4,2.4-2.4,6.3,0,8.8c1.2,1.2,2.6,1.8,4.4,1.8
		c1.5,0,2.6,1.2,2.6,2.6c0,1.5-1.2,2.6-2.6,2.6c-3.2,0-6.1-1.3-8-3.3c-2.1-2.1-3.3-4.9-3.3-8c0-3.2,1.3-6.1,3.3-8
		C25.9,21.8,28.8,20.5,32,20.5L32,20.5L32,20.5L32,20.5z"/>
	<path class="st0" d="M42.7,42.7L42.7,42.7c1.1-1.1,1.1-2.6,0-3.7l0,0c-1.1-1.1-2.6-1.1-3.7,0c-1.1,1.1-1.1,2.6,0,3.7l0,0
		C40,43.7,41.6,43.7,42.7,42.7"/>
	<path class="st0" d="M32,0.7c-1.5,0-2.6,1.2-2.6,2.6S30.5,6,32,6c7.3,0,13.7,2.9,18.5,7.7s7.7,11.2,7.7,18.5c0,1.5,1.2,2.6,2.6,2.6
		s2.6-1.2,2.6-2.6c0-8.7-3.6-16.5-9.2-22.2C48.5,4.2,40.7,0.7,32,0.7"/>
	<path class="st0" d="M32,63.3c1.5,0,2.6-1.2,2.6-2.6S33.5,58,32,58c-7.3,0-13.7-2.9-18.5-7.7S5.9,39.1,5.9,31.9
		c0-1.5-1.2-2.6-2.6-2.6s-2.6,1.2-2.6,2.6c0,8.7,3.6,16.5,9.2,22.2C15.5,59.8,23.3,63.3,32,63.3"/>
</g>
</svg>
