<?xml version="1.0" encoding="utf-8"?>
<!-- Generator: Adobe Illustrator 23.0.3, SVG Export Plug-In . SVG Version: 6.00 Build 0)  -->
<svg version="1.1" id="Layer_1" xmlns="http://www.w3.org/2000/svg" xmlns:xlink="http://www.w3.org/1999/xlink" x="0px" y="0px"
	 viewBox="0 0 64 64" style="enable-background:new 0 0 64 64;" xml:space="preserve">
<style type="text/css">
	.st0{fill:#56AF08;}
	.st1{fill:#2069C2;}
</style>
<path class="st0" d="M63.8,39.6L63.8,39.6c-0.3-0.7-0.8-1.2-1.5-1.2l-11.6-1.6l-5.2-10.5c-0.3-0.6-1-1-1.7-1c-0.7,0-1.3,0.4-1.7,1.1
	L37,36.8l-11.5,1.7c-0.7,0.1-1.3,0.6-1.5,1.2c-0.2,0.6-0.1,1.4,0.5,2l8.4,8.1l-1.9,11.5c-0.2,0.7,0.1,1.4,0.7,1.9
	c0.3,0.2,0.7,0.3,1.1,0.3c0.3,0,0.6-0.1,0.8-0.2l10.4-5.4l10.3,5.4c0.3,0.2,0.7,0.2,0.9,0.2c1,0,1.9-0.8,1.9-1.9
	c0-0.1,0-0.3-0.1-0.5l-2-11.3l8.3-8.2C63.8,41.1,64,40.3,63.8,39.6z M36.6,49.4L36.6,49.4c0.1-0.6-0.1-1.3-0.5-1.7l-6.4-6.1l8.8-1.3
	c0.6-0.1,1.2-0.5,1.4-1l3.9-8l4,7.9c0.2,0.6,0.8,0.9,1.4,1l8.8,1.3l-6.4,6.2c-0.5,0.5-0.7,1.1-0.5,1.7l1.5,8.7l-7.8-4.1
	c-0.5-0.3-1.1-0.3-1.7,0l-7.9,4.1L36.6,49.4z"/>
<path class="st1" d="M9.4,25.5h26.3c1,0,1.9-0.8,1.9-1.9s-0.8-1.9-1.9-1.9H9.4c-1,0-1.9,0.8-1.9,1.9S8.3,25.5,9.4,25.5z"/>
<path class="st1" d="M9.4,34.8h9.8c1,0,1.9-0.8,1.9-1.9S20.3,31,19.2,31H9.4c-1,0-1.9,0.8-1.9,1.9C7.5,34,8.3,34.8,9.4,34.8z"/>
<path class="st1" d="M47.2,6.9l-5.3-5.3c-1.1-1.1-2.5-1.6-4-1.6H5.6C2.5,0,0,2.5,0,5.6v52.8C0,61.5,2.5,64,5.6,64h3.7c0,0,0,0,0,0
	h9.5c1,0,1.9-0.8,1.9-1.9s-0.8-1.9-1.9-1.9h-1.4H9.4H5.6c-1,0-1.9-0.8-1.9-1.9V5.6c0-1,0.8-1.9,1.9-1.9h28.1v9.4
	c0,1,0.8,1.9,1.9,1.9H45v0.3v4.9v0.1c0,1,0.8,1.9,1.9,1.9c1.1,0,1.9-0.8,1.9-1.9v-0.1v-4.9v-4.4C48.8,9.4,48.2,8,47.2,6.9z
	 M44.9,11.2h-7.5V3.8h0.1c0.4,0,1-0.1,1.6,0.5l5.3,5.3C45,10.2,44.9,10.8,44.9,11.2z"/>
<path class="st1" d="M9.4,44.1h9.8c1,0,1.9-0.8,1.9-1.9s-0.8-1.9-1.9-1.9H9.4c-1,0-1.9,0.8-1.9,1.9S8.3,44.1,9.4,44.1z"/>
</svg>
