<?xml version="1.0" encoding="utf-8"?>
<!-- Generator: Adobe Illustrator 22.1.0, SVG Export Plug-In . SVG Version: 6.00 Build 0)  -->
<svg version="1.1" id="Layer_1" xmlns="http://www.w3.org/2000/svg" xmlns:xlink="http://www.w3.org/1999/xlink" x="0px" y="0px"
	 viewBox="0 0 64 64" style="enable-background:new 0 0 64 64;" xml:space="preserve">
<style type="text/css">
	.st0{fill:#6C45BE;}
</style>
<path class="st0" d="M9.4,25.5h26.3c1,0,1.9-0.8,1.9-1.9s-0.8-1.9-1.9-1.9H9.4c-1,0-1.9,0.8-1.9,1.9S8.3,25.5,9.4,25.5z"/>
<path class="st0" d="M9.4,34.8h18.8c1,0,1.9-0.8,1.9-1.9s-0.8-1.9-1.9-1.9H9.4c-1,0-1.9,0.8-1.9,1.9S8.3,34.8,9.4,34.8z"/>
<path class="st0" d="M9.4,44.1h18.8c1,0,1.9-0.8,1.9-1.9s-0.8-1.9-1.9-1.9H9.4c-1,0-1.9,0.8-1.9,1.9S8.3,44.1,9.4,44.1z"/>
<path class="st0" d="M35.6,52.8H24.4c-1,0-1.9,0.8-1.9,1.9s0.8,1.9,1.9,1.9h11.3c1,0,1.9-0.8,1.9-1.9S36.7,52.8,35.6,52.8z"/>
<path class="st0" d="M45,58.4c0,1-0.8,1.9-1.9,1.9H5.6c-1,0-1.9-0.8-1.9-1.9V5.6c0-1,0.8-1.9,1.9-1.9h28.1v9.4c0,1,0.8,1.9,1.9,1.9
	H45v15.3h3.8V10.9c0-1.5-0.6-2.9-1.6-4l-5.3-5.3c-1.1-1.1-2.5-1.6-4-1.6H5.6C2.5,0,0,2.5,0,5.6v52.8C0,61.5,2.5,64,5.6,64h37.5
	c3.1,0,5.6-2.5,5.6-5.6v-32H45V58.4z M37.5,3.8c0.4,0,1-0.1,1.6,0.5l5.3,5.3c0.6,0.6,0.5,1.2,0.5,1.6h-7.5V3.8z"/>
</svg>
