<?xml version="1.0" encoding="utf-8"?>
<!-- Generator: Adobe Illustrator 23.0.3, SVG Export Plug-In . SVG Version: 6.00 Build 0)  -->
<svg version="1.1" id="Layer_1" xmlns="http://www.w3.org/2000/svg" xmlns:xlink="http://www.w3.org/1999/xlink" x="0px" y="0px"
	 viewBox="0 0 64 64" style="enable-background:new 0 0 64 64;" xml:space="preserve">
<style type="text/css">
	.st0{fill:#FFFFFF;}
</style>
<path class="st0" d="M40.9,32l15.5-15.5c2.5-2.5,2.5-6.4,0-8.9s-6.4-2.5-8.9,0L32,23.1L16.5,7.6c-2.5-2.5-6.4-2.5-8.9,0
	s-2.5,6.4,0,8.9L23.1,32L7.6,47.5c-2.5,2.5-2.5,6.4,0,8.9c1.2,1.2,2.8,1.8,4.4,1.8s3.2-0.6,4.4-1.8L32,40.9l15.5,15.5
	c1.2,1.2,2.8,1.8,4.4,1.8c1.6,0,3.2-0.6,4.4-1.8c2.5-2.5,2.5-6.4,0-8.9L40.9,32z"/>
</svg>
