<?xml version="1.0" encoding="utf-8"?>
<!-- Generator: Adobe Illustrator 23.0.1, SVG Export Plug-In . SVG Version: 6.00 Build 0)  -->
<svg version="1.1" id="Layer_1" xmlns="http://www.w3.org/2000/svg" xmlns:xlink="http://www.w3.org/1999/xlink" x="0px" y="0px"
	 viewBox="0 0 64 64" style="enable-background:new 0 0 64 64;" xml:space="preserve">
<style type="text/css">
	.st0{fill:#595757;}
</style>
<path class="st0" d="M32,4.9C17.1,4.9,4.9,17.1,4.9,32S17.1,59.1,32,59.1c14.9,0,27.1-12.1,27.1-27.1S46.9,4.9,32,4.9z M32,54.4
	c-2.8,0-5.4-0.5-7.8-1.4c1-0.9,2-2.8,2.2-3.4c0.2-0.8-0.6-2.7-0.6-3.1c0-0.4-2.3-3.1-2.9-3.5c-0.6-0.4,0-2.5,0-3.9
	c0-1.4-3.1-2.1-4.3-2.9c-1.2-0.8-1.6,2.1-2.9,1.6c-1.4-0.6-1.2-2.5-1.4-4.1c-0.1-1.1-3.1-1.5-4.8-1.6c0,0,0,0,0,0
	c0-9.8,6.4-18.2,15.2-21.2c-0.1,0.1-0.2,0.2-0.2,0.3c-0.8,1.1-2.1,0-1.8,3.3c0.4,3.3-0.1,4.9,2.3,5.4c2.4,0.5,3.3-0.1,4.9,0
	c1.6,0.1,1.6,4.3,1.9,4.3c0,0,2.2,6,8.5,7.7c1.3,0.4-1.4,3.1-3.3,4c-1.9,0.8-3.7,1-3.9,3c-0.3,2,2.7,0.8,3.4,1.2
	c0.8,0.4,4,1.6,5.4-0.3c1.3-1.9,6.8-1.2,6.3-3.2c-1.1-4.5,6.4-6.5,4.2-9.5c-0.5-0.7-0.4-2.8-0.5-5c1.6,3.1,2.4,6.5,2.4,10.2
	C54.4,44.4,44.4,54.4,32,54.4z"/>
</svg>
