<?xml version="1.0" encoding="utf-8"?>
<!-- Generator: Adobe Illustrator 23.0.1, SVG Export Plug-In . SVG Version: 6.00 Build 0)  -->
<svg version="1.1" id="Layer_1" xmlns="http://www.w3.org/2000/svg" xmlns:xlink="http://www.w3.org/1999/xlink" x="0px" y="0px"
	 viewBox="0 0 64 64" style="enable-background:new 0 0 64 64;" xml:space="preserve">
<style type="text/css">
	.st0{fill:#FFFFFF;}
</style>
<g>
	<path class="st0" d="M4.7,59.3h24.8V34.5H4.7V59.3z M9.7,39.4h14.9v14.9H9.7V39.4z M9.7,39.4"/>
	<rect x="14.6" y="44.4" class="st0" width="5" height="5"/>
	<rect x="44.4" y="54.3" class="st0" width="5" height="5"/>
	<rect x="54.3" y="54.3" class="st0" width="5" height="5"/>
	<path class="st0" d="M54.3,39.4h-5v-5H34.5v24.8h5V44.4h5v5h14.9V34.5h-5V39.4z M54.3,39.4"/>
	<path class="st0" d="M4.7,29.5h24.8V4.7H4.7V29.5z M9.7,9.7h14.9v14.9H9.7V9.7z M9.7,9.7"/>
	<rect x="14.6" y="14.6" class="st0" width="5" height="5"/>
	<path class="st0" d="M34.5,4.7v24.8h24.8V4.7H34.5z M54.3,24.6H39.4V9.7h14.9V24.6z M54.3,24.6"/>
	<rect x="44.4" y="14.6" class="st0" width="5" height="5"/>
</g>
</svg>
