<?xml version="1.0" encoding="utf-8"?>
<!-- Generator: Adobe Illustrator 23.1.0, SVG Export Plug-In . SVG Version: 6.00 Build 0)  -->
<svg version="1.1" id="Layer_1" xmlns="http://www.w3.org/2000/svg" xmlns:xlink="http://www.w3.org/1999/xlink" x="0px" y="0px"
	 viewBox="0 0 64 64" style="enable-background:new 0 0 64 64;" xml:space="preserve">
<style type="text/css">
	.st0{fill:#2068C0;}
</style>
<g>
	<path class="st0" d="M16.7,24.3c-5.3,0-9.6,4.3-9.6,9.6s4.3,9.6,9.6,9.6s9.6-4.3,9.6-9.6S21.9,24.3,16.7,24.3L16.7,24.3z
		 M16.7,38.7c-2.6,0-4.8-2.2-4.8-4.8s2.2-4.8,4.8-4.8c2.6,0,4.8,2.2,4.8,4.8S19.3,38.7,16.7,38.7L16.7,38.7z M16.7,38.7"/>
	<g>
		<path class="st0" d="M43.4,23.2l8.8-8.8c0.4-0.4,0.6-0.9,0.6-1.5c0-0.6-0.2-1.1-0.6-1.5c-0.8-0.8-2.2-0.8-3,0l-7.3,7.3L39,15.7
			c-0.8-0.8-2.2-0.8-3,0c-0.4,0.4-0.6,0.9-0.6,1.5c0,0.6,0.2,1.1,0.6,1.5l4.4,4.4c0.4,0.4,0.9,0.6,1.5,0.6
			C42.5,23.8,43,23.6,43.4,23.2z"/>
		<path class="st0" d="M45.2,1.3c-10,0-18.1,7.2-18.1,16c0,4.5,2.1,8.8,5.9,11.8l-1.6,5.7c-0.2,0.8,0.1,1.7,0.7,2.2
			c0.4,0.3,0.9,0.5,1.4,0.5c0.3,0,0.7-0.1,1-0.2l8.2-4.2c0.8,0.1,1.7,0.2,2.5,0.2c10,0,18.1-7.2,18.1-16S55.2,1.3,45.2,1.3z
			 M37.5,28.8c0.2-0.9-0.1-1.8-0.9-2.3c-3.3-2.2-5.3-5.6-5.3-9.2c0-6.5,6.2-11.7,13.8-11.7c7.6,0,13.8,5.2,13.8,11.7
			C59,23.8,52.8,29,45.2,29c-0.9,0-1.7-0.1-2.6-0.2c-0.4-0.1-0.9,0-1.3,0.2l-4.5,2.3L37.5,28.8z"/>
	</g>
	<path class="st0" d="M3.1,62.7c1.3,0,2.4-1.1,2.4-2.4v-4.8c0-2.2,1.8-4,4-4h14.4c2.2,0,4,1.8,4,4v4.8c0,1.3,1.1,2.4,2.4,2.4
		c1.3,0,2.4-1.1,2.4-2.4v-4.8c0-4.8-3.9-8.8-8.8-8.8H9.5c-4.8,0-8.8,3.9-8.8,8.8v4.8C0.7,61.6,1.8,62.7,3.1,62.7L3.1,62.7z
		 M3.1,62.7"/>
</g>
</svg>
