<?xml version="1.0" encoding="utf-8"?>
<!-- Generator: Adobe Illustrator 23.1.0, SVG Export Plug-In . SVG Version: 6.00 Build 0)  -->
<svg version="1.1" id="Layer_1" xmlns="http://www.w3.org/2000/svg" xmlns:xlink="http://www.w3.org/1999/xlink" x="0px" y="0px"
	 viewBox="0 0 64 64" style="enable-background:new 0 0 64 64;" xml:space="preserve">
<style type="text/css">
	.st0{fill:#2068C0;}
</style>
<path class="st0" d="M60.8,25.4l-4.4-0.8c-0.5-1.5-1.1-2.9-1.8-4.3l2.6-3.7c1.1-1.6,0.9-3.7-0.4-5l-3.9-3.9
	c-0.7-0.7-1.7-1.1-2.8-1.1c-0.8,0-1.6,0.3-2.3,0.7l-3.7,2.6c-1.4-0.8-2.9-1.4-4.5-1.8l-0.7-4.4c-0.3-1.9-1.9-3.3-3.9-3.3h-5.6
	c-1.9,0-3.5,1.4-3.9,3.3l-0.8,4.5C23.4,8.6,22,9.3,20.6,10L17,7.4c-0.7-0.5-1.5-0.7-2.3-0.7c-1,0-2,0.4-2.8,1.1L8,11.7
	c-1.3,1.3-1.5,3.5-0.4,5l2.6,3.7c-0.7,1.4-1.3,2.8-1.8,4.3l-4.4,0.7c-1.9,0.3-3.3,1.9-3.3,3.9v5.6c0,1.9,1.4,3.5,3.3,3.9l4.5,0.8
	c0.5,1.5,1.1,2.9,1.8,4.3l-2.6,3.6c-1.1,1.6-0.9,3.7,0.4,5l3.9,3.9c0.7,0.7,1.7,1.1,2.8,1.1c0.8,0,1.6-0.3,2.3-0.7l3.7-2.6
	c1.3,0.7,2.7,1.3,4.2,1.7l0.7,4.4c0.3,1.9,1.9,3.3,3.9,3.3h5.6c1.9,0,3.5-1.4,3.9-3.3l0.8-4.4c1.5-0.5,2.9-1.1,4.3-1.8l3.7,2.6
	c0.7,0.5,1.5,0.7,2.3,0.7c1,0,2-0.4,2.8-1.1l3.9-3.9c1.3-1.3,1.5-3.5,0.4-5l-2.6-3.7c0.7-1.4,1.3-2.8,1.8-4.3l4.4-0.7
	c1.9-0.3,3.3-1.9,3.3-3.9v-5.6C64,27.3,62.7,25.7,60.8,25.4L60.8,25.4z M60.5,34.8c0,0.2-0.1,0.3-0.3,0.3l-5.5,0.9
	c-0.7,0.1-1.3,0.6-1.4,1.3c-0.5,1.9-1.3,3.8-2.3,5.5c-0.4,0.6-0.3,1.4,0.1,1.9l3.3,4.6c0.1,0.1,0.1,0.3,0,0.4l-3.9,3.9
	c-0.1,0.1-0.2,0.1-0.3,0.1c-0.1,0-0.1,0-0.2-0.1l-4.6-3.3c-0.6-0.4-1.3-0.4-1.9-0.1c-1.7,1-3.6,1.8-5.5,2.3
	c-0.7,0.2-1.2,0.7-1.3,1.4l-0.9,5.5c0,0.2-0.2,0.3-0.3,0.3h-5.6c-0.2,0-0.3-0.1-0.3-0.3l-0.9-5.5c-0.1-0.7-0.6-1.3-1.3-1.4
	c-1.9-0.5-3.7-1.2-5.4-2.2c-0.3-0.2-0.6-0.2-0.9-0.2c-0.4,0-0.7,0.1-1,0.3L15.1,54C15.1,54,15,54,14.9,54c-0.1,0-0.2,0-0.3-0.1
	L10.7,50c-0.1-0.1-0.1-0.3,0-0.4l3.2-4.6c0.4-0.6,0.4-1.3,0.1-2c-1-1.7-1.8-3.6-2.3-5.5c-0.2-0.7-0.7-1.2-1.4-1.3l-5.6-1
	c-0.2,0-0.3-0.2-0.3-0.3v-5.6c0-0.2,0.1-0.3,0.3-0.3l5.5-0.9c0.7-0.1,1.3-0.6,1.4-1.3c0.5-1.9,1.2-3.8,2.3-5.5
	c0.4-0.6,0.3-1.4-0.1-1.9l-3.3-4.6c-0.1-0.1-0.1-0.3,0-0.4l3.9-3.9c0.1-0.1,0.2-0.1,0.3-0.1c0.1,0,0.1,0,0.2,0.1l4.6,3.2
	c0.6,0.4,1.3,0.4,2,0.1c1.7-1,3.6-1.8,5.5-2.3c0.7-0.2,1.2-0.7,1.3-1.4l1-5.6c0-0.2,0.2-0.3,0.3-0.3h5.6c0.2,0,0.3,0.1,0.3,0.3
	l0.9,5.5c0.1,0.7,0.6,1.3,1.3,1.4c2,0.5,3.9,1.3,5.7,2.3c0.6,0.4,1.4,0.3,1.9-0.1l4.6-3.3c0.1,0,0.1-0.1,0.2-0.1
	c0.1,0,0.2,0,0.3,0.1l3.9,3.9c0.1,0.1,0.1,0.3,0,0.4L51,19.2c-0.4,0.6-0.4,1.3-0.1,1.9c1,1.7,1.8,3.6,2.3,5.5
	c0.2,0.7,0.7,1.2,1.4,1.3l5.5,0.9c0.2,0,0.3,0.2,0.3,0.3L60.5,34.8L60.5,34.8z M60.5,34.8"/>
<path class="st0" d="M32.4,18.4c-7.5,0-13.6,6.1-13.6,13.6c0,7.5,6.1,13.6,13.6,13.6c7.5,0,13.6-6.1,13.6-13.6
	C46.1,24.5,39.9,18.4,32.4,18.4L32.4,18.4z M32.4,42.1c-5.6,0-10.1-4.5-10.1-10.1c0-5.6,4.5-10.1,10.1-10.1
	c5.6,0,10.1,4.5,10.1,10.1C42.5,37.6,38,42.1,32.4,42.1L32.4,42.1z M32.4,42.1"/>
</svg>
