<?xml version="1.0" encoding="utf-8"?>
<!-- Generator: Adobe Illustrator 23.0.1, SVG Export Plug-In . SVG Version: 6.00 Build 0)  -->
<svg version="1.1" id="Layer_1" xmlns="http://www.w3.org/2000/svg" xmlns:xlink="http://www.w3.org/1999/xlink" x="0px" y="0px"
	 viewBox="0 0 64 64" style="enable-background:new 0 0 64 64;" xml:space="preserve">
<style type="text/css">
	.st0{fill:#595757;}
</style>
<path class="st0" d="M40.3,29.3C38,28,35.5,27,33,26c-1.4-0.6-2.8-1.3-4-2.2c-2.4-1.9-1.9-5,0.9-6.2c0.8-0.3,1.6-0.5,2.5-0.5
	c3.2-0.2,6.3,0.4,9.2,1.8c1.5,0.7,1.9,0.5,2.4-1c0.5-1.6,1-3.2,1.4-4.8c0.3-1.1-0.1-1.8-1.1-2.3c-1.9-0.8-3.8-1.4-5.8-1.7
	c-2.6-0.4-2.6-0.4-2.7-3.1c0-3.7,0-3.7-3.8-3.7c-0.5,0-1.1,0-1.6,0c-1.8,0-2,0.4-2.1,2.1c0,0.8,0,1.6,0,2.4c0,2.3,0,2.3-2.3,3.1
	c-5.4,2-8.8,5.7-9.1,11.6c-0.3,5.2,2.4,8.8,6.7,11.4c2.7,1.6,5.6,2.5,8.4,3.8c1.1,0.5,2.1,1,3.1,1.8c2.7,2.2,2.2,5.9-1,7.4
	c-1.7,0.8-3.5,0.9-5.4,0.7c-2.9-0.4-5.6-1.1-8.2-2.5c-1.5-0.8-2-0.6-2.5,1.1c-0.4,1.4-0.8,2.9-1.2,4.3c-0.5,1.9-0.3,2.4,1.5,3.3
	c2.3,1.1,4.8,1.7,7.4,2.1c2,0.3,2.1,0.4,2.1,2.5c0,0.9,0,1.9,0,2.8c0,1.2,0.6,1.9,1.8,1.9c1.4,0,2.8,0,4.2,0c1.1,0,1.7-0.6,1.7-1.8
	c0-1.3,0.1-2.6,0-3.9c-0.1-1.3,0.5-2,1.8-2.3c2.9-0.8,5.4-2.3,7.3-4.7C49.8,42.8,47.8,33.4,40.3,29.3L40.3,29.3z"/>
</svg>
