<?xml version="1.0" encoding="utf-8"?>
<!-- Generator: Adobe Illustrator 23.1.0, SVG Export Plug-In . SVG Version: 6.00 Build 0)  -->
<svg version="1.1" id="Layer_1" xmlns="http://www.w3.org/2000/svg" xmlns:xlink="http://www.w3.org/1999/xlink" x="0px" y="0px"
	 viewBox="0 0 64 64" style="enable-background:new 0 0 64 64;" xml:space="preserve">
<style type="text/css">
	.st0{fill:#FFFFFF;}
</style>
<path class="st0" d="M61.2,10.6h-5.5V5.1c0-0.6-0.5-1.2-1.2-1.2c-0.6,0-1.2,0.5-1.2,1.2v5.5h-5.5c-0.6,0-1.2,0.5-1.2,1.2
	c0,0.6,0.5,1.2,1.2,1.2h5.5v5.5c0,0.6,0.5,1.2,1.2,1.2c0.6,0,1.2-0.5,1.2-1.2v-5.5h5.5c0.6,0,1.2-0.5,1.2-1.2S61.9,10.6,61.2,10.6z"
	/>
<g>
	<path class="st0" d="M19.8,13.8c-6.1,0-10.8,2.4-10.8,5.7s4.6,5.7,10.8,5.7c6.1,0,10.8-2.4,10.8-5.7S26,13.8,19.8,13.8z M19.8,16.5
		c4.8,0,8,1.8,8,2.9s-3.2,2.9-8,2.9c-4.8,0-8-1.8-8-2.9S15,16.5,19.8,16.5z"/>
	<path class="st0" d="M13.2,29.9c1.8,0.7,4.2,1.1,6.6,1.1c5.1,0,9.3-1.7,10.4-4.2c0.2-0.3,0.2-0.7,0-1c-0.1-0.3-0.4-0.6-0.7-0.8
		c-0.7-0.3-1.5,0-1.8,0.7c-0.6,1.2-3.8,2.6-8,2.6c-4.2,0-7.5-1.4-8-2.7c-0.1-0.3-0.4-0.6-0.7-0.8c-0.3-0.2-0.7-0.2-1,0
		c-0.7,0.3-1.1,1-0.8,1.7C9.8,28,11.1,29.1,13.2,29.9z"/>
	<path class="st0" d="M9.2,32.5c0.5,1.4,1.9,2.5,4,3.4c1.8,0.7,4.2,1.1,6.6,1.1c5.1,0,9.3-1.7,10.4-4.2c0.2-0.3,0.2-0.7,0-1
		c-0.1-0.3-0.4-0.6-0.7-0.8c-0.7-0.3-1.5,0-1.8,0.7c-0.6,1.2-3.8,2.6-8,2.6c-4.2,0-7.5-1.4-8-2.7c-0.1-0.3-0.4-0.6-0.7-0.8
		c-0.3-0.2-0.7-0.2-1,0C9.4,31,9,31.8,9.2,32.5z"/>
	<path class="st0" d="M29.6,37c-0.7-0.3-1.5,0-1.8,0.7c-0.6,1.3-3.8,2.6-8,2.6c-4.2,0-7.5-1.4-8-2.7c-0.1-0.3-0.4-0.6-0.7-0.8
		c-0.3-0.2-0.7-0.2-1,0c-0.7,0.3-1.1,1-0.8,1.7c0.5,1.4,1.9,2.5,4,3.4c1.8,0.7,4.2,1.1,6.6,1.1c5.1,0,9.3-1.7,10.4-4.2
		C30.6,38.1,30.3,37.3,29.6,37z"/>
	<path class="st0" d="M13.2,47.8c1.8,0.7,4.2,1.1,6.6,1.1c5.1,0,9.3-1.7,10.4-4.2c0.2-0.3,0.2-0.7,0-1c-0.1-0.3-0.4-0.6-0.7-0.8
		c-0.7-0.3-1.5,0-1.8,0.7c-0.6,1.3-3.8,2.6-8,2.6c-4.2,0-7.5-1.4-8-2.7c-0.3-0.7-1.1-1.1-1.8-0.8c-0.7,0.3-1.1,1-0.8,1.7
		C9.8,45.8,11.1,47,13.2,47.8z"/>
	<path class="st0" d="M29.6,48.9c-0.7-0.3-1.5,0-1.8,0.7c-0.6,1.3-3.8,2.6-8,2.6c-4.2,0-7.5-1.4-8-2.7c-0.3-0.7-1.1-1.1-1.8-0.8
		c-0.7,0.3-1.1,1-0.8,1.7c0.5,1.4,1.9,2.5,4,3.4c1.8,0.7,4.2,1.1,6.6,1.1c5.1,0,9.3-1.7,10.4-4.2C30.6,50,30.3,49.2,29.6,48.9z"/>
	<path class="st0" d="M55.2,37c-0.3-0.2-0.7-0.2-1,0c-0.3,0.1-0.6,0.4-0.8,0.7c-0.6,1.3-3.8,2.6-8,2.6c-4.2,0-7.5-1.4-8-2.7
		c-0.1-0.3-0.4-0.6-0.7-0.8c-0.3-0.2-0.7-0.2-1,0c-0.7,0.3-1.1,1-0.8,1.7c0.5,1.4,1.9,2.5,4,3.4c1.8,0.7,4.2,1.1,6.6,1.1
		c5.1,0,9.3-1.7,10.4-4.2c0.2-0.3,0.2-0.7,0-1C55.8,37.4,55.6,37.1,55.2,37z"/>
	<path class="st0" d="M55.2,42.9c-0.7-0.3-1.5,0-1.8,0.7c-0.6,1.3-3.8,2.6-8,2.6c-4.2,0-7.5-1.4-8-2.7c-0.3-0.7-1-1.1-1.8-0.8
		c-0.3,0.1-0.6,0.4-0.8,0.7c-0.2,0.3-0.2,0.7,0,1c0.5,1.4,1.9,2.5,4,3.4c1.8,0.7,4.2,1.1,6.6,1.1c5.1,0,9.3-1.7,10.4-4.2
		c0.2-0.3,0.2-0.7,0-1C55.8,43.3,55.6,43.1,55.2,42.9z"/>
	<path class="st0" d="M55.2,48.9c-0.7-0.3-1.5,0-1.8,0.7c-0.6,1.3-3.8,2.6-8,2.6c-4.2,0-7.5-1.4-8-2.7c-0.3-0.7-1.1-1.1-1.8-0.8
		c-0.7,0.3-1.1,1-0.8,1.7c0.5,1.4,1.9,2.5,4,3.4c1.8,0.7,4.2,1.1,6.6,1.1c5.1,0,9.3-1.7,10.4-4.2c0.2-0.3,0.2-0.7,0-1
		C55.8,49.3,55.6,49,55.2,48.9z"/>
	<path class="st0" d="M45.5,37c6.1,0,10.8-2.4,10.8-5.7s-4.6-5.7-10.8-5.7s-10.8,2.4-10.8,5.7S39.3,37,45.5,37z M45.5,28.4
		c4.8,0,8,1.8,8,2.9s-3.2,2.9-8,2.9s-8-1.8-8-2.9S40.6,28.4,45.5,28.4z"/>
</g>
</svg>
