<?xml version="1.0" encoding="utf-8"?>
<!-- Generator: Adobe Illustrator 23.1.0, SVG Export Plug-In . SVG Version: 6.00 Build 0)  -->
<svg version="1.1" id="Layer_1" xmlns="http://www.w3.org/2000/svg" xmlns:xlink="http://www.w3.org/1999/xlink" x="0px" y="0px"
	 viewBox="0 0 64 64" style="enable-background:new 0 0 64 64;" xml:space="preserve">
<style type="text/css">
	.st0{fill:#2068C0;}
</style>
<g>
	<path class="st0" d="M52.6,37.5c0-1.7-1.4-3.1-3.1-3.1c-1.7,0-3.1,1.4-3.1,3.1c0,1.7,1.4,3.1,3.1,3.1
		C51.2,40.6,52.6,39.2,52.6,37.5z"/>
	<path class="st0" d="M60,29.4V16.3c0-3.5-2.9-6.4-6.4-6.4h-3.7l-3.9-7.1c-0.7-1.3-2.1-2.1-3.5-2.1c-0.7,0-1.4,0.2-2,0.5L24.9,9.9
		H7.5c-3.5,0-6.4,2.9-6.4,6.4v40.5c0,3.5,2.9,6.4,6.4,6.4h46.1c3.5,0,6.4-2.9,6.4-6.4V45.4h2.9v-16H60z M52.9,15.4l-1.2-2.1h1.8
		c1.3,0,2.5,0.9,2.9,2.1H52.9z M15,15.4H8.2c-0.9,0-1.7,0.8-1.7,1.7s0.8,1.7,1.7,1.7h48.4v10.6h-8.1c-4.3,0-7.8,3.5-7.8,7.8v0.5
		c0,4.3,3.5,7.8,7.8,7.8h8.1v11.4c0,1.7-1.4,3-3,3H7.5c-1.7,0-3-1.4-3-3V16.3c0-1.7,1.4-3,3-3h11.4L15,15.4z M44.1,37.7v-0.5
		c0-2.4,2-4.4,4.4-4.4h11.1v9.3H48.5C46.1,42.1,44.1,40.1,44.1,37.7z M21.9,15.4L42.1,4.2l0,0c0.1-0.1,0.3-0.1,0.5,0
		c0.2,0.1,0.3,0.2,0.4,0.3l6.1,11H21.9z"/>
</g>
</svg>
