<?xml version="1.0" encoding="utf-8"?>
<!-- Generator: Adobe Illustrator 23.0.6, SVG Export Plug-In . SVG Version: 6.00 Build 0)  -->
<svg version="1.1" id="Layer_1" xmlns="http://www.w3.org/2000/svg" xmlns:xlink="http://www.w3.org/1999/xlink" x="0px" y="0px"
	 viewBox="0 0 64 64" style="enable-background:new 0 0 64 64;" xml:space="preserve">
<style type="text/css">
	.st0{fill:#FFFFFF;}
</style>
<path class="st0" d="M14.3,61.1c0,0.7,0.6,1.3,1.3,1.3h33.7c0.7,0,1.3-0.6,1.3-1.3V18H14.3V61.1z M40,25.4h5v28.9h-5V25.4z M30,25.4
	h5v28.9h-5V25.4z M20.1,25.4h5v28.9h-5V25.4z M20.1,25.4"/>
<path class="st0" d="M43.7,8.7V3.9c0-0.7-0.6-1.3-1.3-1.3H22.6c-0.7,0-1.3,0.6-1.3,1.3v6.4H12c-0.7,0-1.3,0.6-1.3,1.3v3.4
	c0,0.7,0.6,1.3,1.3,1.3H53c0.7,0,1.3-0.6,1.3-1.3v-3.4c0-0.7-0.6-1.3-1.3-1.3h-9.3V8.7z M38.7,10.1H26.3V7.6h12.4V10.1z M38.7,10.1"
	/>
</svg>
