<?xml version="1.0" encoding="utf-8"?>
<!-- Generator: Adobe Illustrator 23.0.1, SVG Export Plug-In . SVG Version: 6.00 Build 0)  -->
<svg version="1.1" id="Layer_1" xmlns="http://www.w3.org/2000/svg" xmlns:xlink="http://www.w3.org/1999/xlink" x="0px" y="0px"
	 viewBox="0 0 64 64" style="enable-background:new 0 0 64 64;" xml:space="preserve">
<style type="text/css">
	.st0{fill:#00479D;}
</style>
<g>
	<path class="st0" d="M6.4,13.9h51.7c1.9,0,3.4-1.5,3.4-3.5C61.5,8.6,60,7,58.1,7H6.4C4.5,7,3,8.6,3,10.5C3,12.4,4.5,13.9,6.4,13.9
		L6.4,13.9z M58.1,28.2H6.4c-1.9,0-3.4,1.5-3.4,3.5c0,1.9,1.5,3.5,3.4,3.5h51.7c1.9,0,3.4-1.5,3.4-3.5C61.5,29.7,60,28.2,58.1,28.2
		L58.1,28.2z M58.1,49.4H6.4c-1.9,0-3.4,1.6-3.4,3.5c0,1.9,1.5,3.5,3.4,3.5h51.7c1.9,0,3.4-1.5,3.4-3.5C61.5,50.9,60,49.4,58.1,49.4
		L58.1,49.4z M58.1,49.4"/>
</g>
</svg>
