<?xml version="1.0" encoding="utf-8"?>
<!-- Generator: Adobe Illustrator 23.0.6, SVG Export Plug-In . SVG Version: 6.00 Build 0)  -->
<svg version="1.1" id="Layer_1" xmlns="http://www.w3.org/2000/svg" xmlns:xlink="http://www.w3.org/1999/xlink" x="0px" y="0px"
	 viewBox="0 0 64 64" style="enable-background:new 0 0 64 64;" xml:space="preserve">
<style type="text/css">
	.st0{fill:#FFFFFF;}
</style>
<g>
	<path class="st0" d="M56.7,7.3c-7.7-7.7-20.1-7.7-27.8,0c-5.2,5.2-7.1,12.9-4.8,19.9L2,49.3c-0.3,0.3-0.5,0.8-0.5,1.3v10.1
		c0,1,0.8,1.8,1.8,1.8h10.1c0.5,0,0.9-0.2,1.3-0.5l2.5-2.5c0.4-0.4,0.6-0.9,0.5-1.5l-0.3-2.7l3.8-0.4c0.9-0.1,1.5-0.8,1.6-1.6
		l0.4-3.8l2.7,0.3c0.5,0.1,1-0.1,1.4-0.4c0.4-0.3,0.6-0.8,0.6-1.3v-3.3h3.3c0.5,0,0.9-0.2,1.3-0.5l4.6-4.5c7,2.3,14.6,0.6,19.8-4.6
		C64.4,27.4,64.4,14.9,56.7,7.3z M51.7,19.9c-2.1,2.1-5.5,2.1-7.6,0c-2.1-2.1-2.1-5.5,0-7.6c2.1-2.1,5.5-2.1,7.6,0
		C53.8,14.4,53.8,17.8,51.7,19.9z"/>
</g>
</svg>
