<?xml version="1.0" encoding="utf-8"?>
<!-- Generator: Adobe Illustrator 23.0.1, SVG Export Plug-In . SVG Version: 6.00 Build 0)  -->
<svg version="1.1" id="Layer_1" xmlns="http://www.w3.org/2000/svg" xmlns:xlink="http://www.w3.org/1999/xlink" x="0px" y="0px"
	 viewBox="0 0 64 64" style="enable-background:new 0 0 64 64;" xml:space="preserve">
<style type="text/css">
	.st0{fill-rule:evenodd;clip-rule:evenodd;fill:#595757;}
</style>
<path class="st0" d="M57.9,51.4L46,39.6c-0.1-0.1-0.1-0.1-0.2-0.2c2.3-3.5,3.7-7.7,3.7-12.3c0-12.3-10-22.4-22.4-22.4
	S4.8,14.8,4.8,27.2c0,12.3,10,22.4,22.4,22.4c4.5,0,8.8-1.4,12.3-3.7c0.1,0.1,0.1,0.1,0.2,0.2l11.8,11.8c1.8,1.8,4.7,1.8,6.4,0
	C59.6,56.1,59.6,53.2,57.9,51.4L57.9,51.4z M27.2,41.8c-8.1,0-14.6-6.5-14.6-14.6c0-8.1,6.5-14.6,14.6-14.6s14.6,6.5,14.6,14.6
	C41.8,35.2,35.2,41.8,27.2,41.8L27.2,41.8z M27.2,41.8"/>
</svg>
