<?xml version="1.0" encoding="utf-8"?>
<!-- Generator: Adobe Illustrator 23.1.0, SVG Export Plug-In . SVG Version: 6.00 Build 0)  -->
<svg version="1.1" id="Layer_1" xmlns="http://www.w3.org/2000/svg" xmlns:xlink="http://www.w3.org/1999/xlink" x="0px" y="0px"
	 viewBox="0 0 64 64" style="enable-background:new 0 0 64 64;" xml:space="preserve">
<style type="text/css">
	.st0{fill:#2068C0;}
</style>
<g>
	<path class="st0" d="M13.2,52.8h42.1c0.9,0,1.7-0.7,1.7-1.7V9.1c0-0.9-0.7-1.7-1.7-1.7H13.2c-0.9,0-1.7,0.7-1.7,1.7v42.1
		C11.6,52.1,12.3,52.8,13.2,52.8z M14.9,49.5V10.8h38.7v38.7H14.9z"/>
	<path class="st0" d="M62.2,0.6H6.3c-0.9,0-1.7,0.7-1.7,1.7v13.7H2.3c-0.9,0-1.7,0.7-1.7,1.7v8.4c0,0.9,0.7,1.7,1.7,1.7h2.4v5.1H2.3
		c-0.9,0-1.7,0.7-1.7,1.7v8.4c0,0.9,0.7,1.7,1.7,1.7h2.4v13.7c0,0.9,0.7,1.7,1.7,1.7h5.3v2.4c0,0.9,0.7,1.7,1.7,1.7h8.4
		c0.9,0,1.7-0.7,1.7-1.7v-2.4h21.9v2.4c0,0.9,0.7,1.7,1.7,1.7h8.4c0.9,0,1.7-0.7,1.7-1.7v-2.4h5.3c0.9,0,1.7-0.7,1.7-1.7V2.2
		C63.8,1.3,63.1,0.6,62.2,0.6z M48.5,60.4v-0.7h5.1v0.7H48.5z M20,59.7v0.7h-5.1v-0.7H20z M60.5,3.9v52.6H8V3.9H60.5z M4.7,36v5.1
		H3.9V36H4.7z M4.7,19.2v5.1H3.9v-5.1H4.7z"/>
	<path class="st0" d="M34.2,17.9c-4.3,0-8.3,2.3-10.6,6.1l-0.1,0.1C22.6,25.9,22,28,22,30.1c0,2.1,0.6,4.2,1.6,6.1l0.1,0.1
		c2.2,3.8,6.2,6.1,10.6,6.1c4.3,0,8.4-2.3,10.6-6.1l0.1-0.1c1.1-1.8,1.6-4,1.6-6.1c0-2.1-0.6-4.3-1.7-6.2
		C42.6,20.2,38.6,17.9,34.2,17.9z M40.9,28.2l1.8-1c0.3,0.9,0.5,1.9,0.5,3c0,1-0.2,2-0.5,3l-1.8-1c0.2-0.6,0.3-1.3,0.3-1.9
		C41.2,29.5,41.1,28.8,40.9,28.2z M27.5,24.3c1.3-1.5,3.1-2.6,5.1-3v2c-1.3,0.3-2.4,1-3.4,1.9L27.5,24.3z M29.2,34.9
		c0.9,1,2.1,1.6,3.4,1.9v2c-2-0.4-3.8-1.4-5.1-3L29.2,34.9z M41,24.3l-1.8,1c-0.9-1-2.1-1.6-3.4-1.9v-2C37.9,21.7,39.7,22.8,41,24.3
		z M37.4,32c-0.7,1.1-1.9,1.8-3.1,1.8c-2,0-3.6-1.6-3.6-3.6c0-2,1.6-3.6,3.6-3.6c2,0,3.6,1.6,3.6,3.6C37.9,30.8,37.7,31.4,37.4,32z
		 M35.9,38.9v-2c1.3-0.3,2.4-1,3.4-1.9l1.8,1C39.7,37.5,37.9,38.5,35.9,38.9z M27.6,32.1l-1.8,1c-0.3-0.9-0.5-1.9-0.5-3
		c0-1,0.2-2,0.5-3l1.8,1c-0.2,0.6-0.3,1.3-0.3,1.9S27.4,31.5,27.6,32.1z"/>
</g>
</svg>
