<?xml version="1.0" encoding="utf-8"?>
<!-- Generator: Adobe Illustrator 23.1.0, SVG Export Plug-In . SVG Version: 6.00 Build 0)  -->
<svg version="1.1" id="Layer_1" xmlns="http://www.w3.org/2000/svg" xmlns:xlink="http://www.w3.org/1999/xlink" x="0px" y="0px"
	 viewBox="0 0 64 64" style="enable-background:new 0 0 64 64;" xml:space="preserve">
<style type="text/css">
	.st0{fill:#2068C0;}
</style>
<g>
	<rect x="37.7" y="22.2" class="st0" width="4.1" height="4.1"/>
	<rect x="22.2" y="37.7" class="st0" width="4.1" height="4.1"/>
	<path class="st0" d="M26.3,26.3h4.7v-4.1h-5.2c-2,0-3.6,1.6-3.6,3.6v5.2h4.1V26.3z"/>
	<polygon class="st0" points="41.8,33.1 37.7,33.1 37.7,37.7 33.1,37.7 33.1,41.8 41.8,41.8 	"/>
	<path class="st0" d="M42.9,16H21.1c-2.8,0-5.2,2.3-5.2,5.2v21.8c0,2.8,2.3,5.2,5.2,5.2h21.8c2.8,0,5.2-2.3,5.2-5.2V21.1
		C48,18.3,45.7,16,42.9,16z M20.1,21.1c0-0.6,0.5-1.1,1.1-1.1h21.8c0.6,0,1.1,0.5,1.1,1.1v21.8c0,0.6-0.5,1.1-1.1,1.1H21.1
		c-0.6,0-1.1-0.5-1.1-1.1V21.1z"/>
	<path class="st0" d="M63.6,14.4h-9c-1.1-2.1-2.8-3.9-5-5v-9h-4.1v7.8c-0.3,0-0.7-0.1-1.1-0.1h-2.6V0.4h-4.1v7.8H34V0.4h-4.1v7.8
		h-3.7V0.4h-4.1v7.8h-2.6c-0.4,0-0.7,0-1,0.1V0.4h-4.1v9c-2.1,1.1-3.9,2.8-5,5h-9v4.1h7.8c0,0.3-0.1,0.7-0.1,1.1v2.6H0.4v4.1h7.8
		v3.7H0.4V34h7.8v3.7H0.4v4.1h7.8v2.6c0,0.4,0,0.7,0.1,1H0.4v4.1h9c1.1,2.1,2.8,3.9,5,5v9h4.1v-7.8c0.3,0,0.7,0.1,1.1,0.1h2.6v7.8
		h4.1v-7.8h3.7v7.8H34v-7.8h3.7v7.8h4.1v-7.8h2.6c0.3,0,0.7,0,1-0.1v7.8h4.1v-9c2.1-1.1,3.9-2.8,5-5h9v-4.1h-7.8
		c0-0.3,0.1-0.7,0.1-1.1v-2.6h7.8v-4.1h-7.8V34h7.8v-4.1h-7.8v-3.7h7.8v-4.1h-7.8v-2.6c0-0.4,0-0.7-0.1-1h7.8V14.4z M51.7,19.6v24.9
		c0,4-3.3,7.3-7.3,7.3H19.6c-4,0-7.3-3.3-7.3-7.3V19.6c0-4,3.3-7.3,7.3-7.3h24.9C48.4,12.3,51.7,15.6,51.7,19.6z"/>
</g>
</svg>
