<?xml version="1.0" encoding="utf-8"?>
<!-- Generator: Adobe Illustrator 24.3.0, SVG Export Plug-In . SVG Version: 6.00 Build 0)  -->
<svg version="1.1" id="Layer_1" xmlns="http://www.w3.org/2000/svg" xmlns:xlink="http://www.w3.org/1999/xlink" x="0px" y="0px"
	 viewBox="0 0 64 64" style="enable-background:new 0 0 64 64;" xml:space="preserve">
<style type="text/css">
	.st0{fill:#8BC34A;}
</style>
<path id="Path_496" class="st0" d="M48.1,4.3C43.2,1.4,37.6,0,32,0c-5.6,0-11.2,1.4-16.1,4.3c-4.8,2.8-8.9,6.8-11.7,11.7
	C1.4,20.8,0,26.4,0,32c0,5.6,1.4,11.2,4.3,16.1c2.8,4.8,6.8,8.9,11.7,11.7C20.8,62.6,26.4,64,32,64c5.6,0,11.2-1.4,16.1-4.3
	c4.8-2.8,8.9-6.8,11.7-11.7C62.6,43.2,64,37.6,64,32c0-5.6-1.4-11.2-4.3-16.1C56.9,11.1,52.9,7.1,48.1,4.3z M32,60.1
	c-3,0-6-0.5-8.8-1.4c-2.8-0.9-5.4-2.3-7.7-4c-2.3-1.7-4.3-3.8-6-6.1c-1.8-2.3-3.1-4.9-4-7.7C4.5,38,4,35,4,32
	c0-3.7,0.7-7.4,2.2-10.9c1.4-3.3,3.4-6.4,6-8.9c2.6-2.5,5.6-4.6,8.9-6c6.9-3,14.8-3,21.7,0c3.3,1.4,6.4,3.4,8.9,6
	c2.6,2.6,4.6,5.6,6,8.9C59.3,24.6,60,28.3,60,32c0,3.7-0.7,7.4-2.2,10.9c-1.4,3.3-3.4,6.4-6,9c-2.6,2.6-5.6,4.6-8.9,6
	C39.4,59.3,35.7,60.1,32,60.1z M44.7,20.3L26,39.2l-8.4-8.4c-0.7-0.8-2-0.8-2.8-0.1c0,0-0.1,0.1-0.1,0.1c-0.1,0.1-0.2,0.2-0.2,0.3
	c-0.1,0.1-0.1,0.3-0.2,0.4c0,0.1-0.1,0.3-0.1,0.4c0,0.1,0,0.3,0,0.4c0,0.1,0.1,0.3,0.1,0.4c0,0.1,0.1,0.3,0.2,0.4l0.2,0.4l9.9,9.9
	c0.7,0.8,1.9,0.8,2.7,0.1c0,0,0.1-0.1,0.1-0.1l0.2-0.2l19.9-20.1c0.4-0.4,0.6-0.9,0.6-1.4c0-0.5-0.2-1-0.6-1.4
	C47,19.6,46,19.4,45.2,20C45,20.1,44.9,20.2,44.7,20.3z"/>
</svg>
