<?xml version="1.0" encoding="utf-8"?>
<!-- Generator: Adobe Illustrator 24.3.0, SVG Export Plug-In . SVG Version: 6.00 Build 0)  -->
<svg version="1.1" id="Layer_1" xmlns="http://www.w3.org/2000/svg" xmlns:xlink="http://www.w3.org/1999/xlink" x="0px" y="0px"
	 viewBox="0 0 64 64" style="enable-background:new 0 0 64 64;" xml:space="preserve">
<style type="text/css">
	.st0{fill:#2069C2;}
</style>
<g>
	<path class="st0" d="M50.2,7c-6.7-4.8-14.9-6.8-23-5.5C19,2.8,11.8,7.2,7,13.9l-2,2.7V6.8H1.1v15.9H17v-3.9H8.4l1.1-1.7
		C14.5,9.5,22.9,5,32,5c0,0,0,0,0,0c7.2,0,14,2.8,19.1,7.9c4.8,4.8,7.6,11.2,7.9,18h3.9C62.6,21.4,57.9,12.6,50.2,7z"/>
	<path class="st0" d="M62.9,57.3V41.3H47l0,3.9h8.7l-1.1,1.7C49.5,54.5,41.1,59,32,59h0c-7.2,0-14-2.8-19.1-7.9
		C8,46.3,5.3,39.9,5,33.1H1.1c0.3,9.5,5,18.3,12.7,23.9c6.7,4.8,14.9,6.8,23,5.5C45,61.2,52.2,56.8,57,50.1l2-2.7v9.9H62.9z"/>
</g>
</svg>
