<?xml version="1.0" encoding="utf-8"?>
<!-- Generator: Adobe Illustrator 24.3.0, SVG Export Plug-In . SVG Version: 6.00 Build 0)  -->
<svg version="1.1" id="Layer_1" xmlns="http://www.w3.org/2000/svg" xmlns:xlink="http://www.w3.org/1999/xlink" x="0px" y="0px"
	 viewBox="0 0 64 64" style="enable-background:new 0 0 64 64;" xml:space="preserve">
<style type="text/css">
	.st0{fill:#FFFFFF;}
</style>
<g id="Group_42" transform="translate(-111.331)">
	<g id="Group_41" transform="translate(111.331)">
		<g id="Group_40" transform="translate(0)">
			<path id="Path_34" class="st0" d="M44.2,7.7c-1.4-0.6-2.9,0.1-3.5,1.5c-0.5,1.3,0.1,2.8,1.3,3.4C54.1,17.9,59.6,31.9,54.4,44
				C49.1,56.1,35,61.6,23,56.3C10.9,51,5.4,37,10.6,24.9C13,19.4,17.4,15,23,12.6c1.3-0.6,1.9-2.2,1.3-3.5c-0.6-1.3-2.1-1.9-3.4-1.3
				C6.1,14.2-0.7,31.4,5.8,46.1c6.4,14.8,23.6,21.5,38.4,15.1c14.8-6.4,21.5-23.6,15.1-38.4C56.3,16,50.9,10.7,44.2,7.7z"/>
			<path id="Path_35" class="st0" d="M32.5,29.2c1.5,0,2.7-1.2,2.7-2.7V2.7C35.2,1.2,34,0,32.5,0c-1.5,0-2.7,1.2-2.7,2.7v23.9
				C29.9,28,31,29.2,32.5,29.2C32.5,29.2,32.5,29.2,32.5,29.2z"/>
		</g>
	</g>
</g>
</svg>
