<?xml version="1.0" encoding="utf-8"?>
<!-- Generator: Adobe Illustrator 23.0.3, SVG Export Plug-In . SVG Version: 6.00 Build 0)  -->
<svg version="1.1" id="Layer_1" xmlns="http://www.w3.org/2000/svg" xmlns:xlink="http://www.w3.org/1999/xlink" x="0px" y="0px"
	 viewBox="0 0 64 64" style="enable-background:new 0 0 64 64;" xml:space="preserve">
<style type="text/css">
	.st0{fill:#2069C2;}
</style>
<g>
	<path class="st0" d="M41.8,23.7L30.7,34.8l-4.6-4.6c-1-1-2.6-1-3.6,0c-1,1-1,2.6,0,3.6l6.5,6.5c0.5,0.5,1.2,0.8,1.8,0.8
		c0.7,0,1.3-0.3,1.8-0.8l12.9-12.9c1-1,1-2.6,0-3.6C44.4,22.7,42.8,22.7,41.8,23.7z"/>
	<path class="st0" d="M60.4,29.4c-1.4,0-2.6,1.2-2.6,2.6c0,14.2-11.6,25.8-25.8,25.8S6.2,46.2,6.2,32S17.8,6.2,32,6.2
		c6.9,0,13.4,2.7,18.3,7.6c1,1,2.6,1,3.6,0c1-1,1-2.6,0-3.6C48.1,4.3,40.3,1,32,1C14.9,1,1,14.9,1,32s13.9,31,31,31s31-13.9,31-31
		C63,30.6,61.8,29.4,60.4,29.4z"/>
</g>
</svg>
