<?xml version="1.0" encoding="utf-8"?>
<!-- Generator: Adobe Illustrator 23.1.0, SVG Export Plug-In . SVG Version: 6.00 Build 0)  -->
<svg version="1.1" id="Layer_1" xmlns="http://www.w3.org/2000/svg" xmlns:xlink="http://www.w3.org/1999/xlink" x="0px" y="0px"
	 viewBox="0 0 64 64" style="enable-background:new 0 0 64 64;" xml:space="preserve">
<style type="text/css">
	.st0{fill:#2069C2;}
	.st1{fill:#56AF08;}
</style>
<g>
	<g>
		<path class="st0" d="M32.5,14.5c-9.6,0-17.4,7.8-17.4,17.4s7.8,17.4,17.4,17.4s17.4-7.8,17.4-17.4S42.1,14.5,32.5,14.5L32.5,14.5z
			 M32.5,45.6c-7.6,0-13.7-6.2-13.7-13.7s6.2-13.7,13.7-13.7s13.7,6.2,13.7,13.7S40.1,45.6,32.5,45.6L32.5,45.6z M32.5,45.6"/>
		<circle class="st0" cx="32.5" cy="32.9" r="3"/>
		<g>
			<path class="st0" d="M34,32.9V22.2c0-0.9-0.7-1.6-1.6-1.6c-0.9,0-1.6,0.7-1.6,1.6v10.7H34z"/>
		</g>
	</g>
	<g>
		<path class="st1" d="M32.5,2.4L32.5,2.4c-1.1,0-1.9,0.8-1.9,1.8s0.8,1.8,1.8,1.8h0.1V2.4z"/>
	</g>
	<path class="st1" d="M32.5,2.4v3.7c14.2,0,25.8,11.6,25.8,25.8c0,14.2-11.6,25.8-25.8,25.8S6.7,46.1,6.7,31.9
		c0-10.7,6.6-19.9,15.9-23.8v-4C11.2,8.2,3,19.1,3,31.9c0,16.3,13.2,29.5,29.5,29.5C48.7,61.4,62,48.1,62,31.9
		C62,15.6,48.7,2.4,32.5,2.4z"/>
	<path class="st1" d="M14,5.7l0.2,0l0,0l0,0l6,0.7l-0.8,6c0,0,0,0,0,0l0,0c0,0,0,0,0,0l0,0l-0.1,0.8c-0.1,0.8,0.5,1.6,1.3,1.7
		c0.8,0.1,1.6-0.5,1.7-1.3l0.1-0.8L23.1,8l0.3-2.6c0.1-0.8-0.4-1.6-1.3-1.7l-1.9-0.2l-5.6-0.7l-0.2,0c-0.8-0.1-1.6,0.5-1.7,1.3
		C12.6,4.9,13.2,5.6,14,5.7z"/>
</g>
</svg>
