<?xml version="1.0" encoding="utf-8"?>
<!-- Generator: Adobe Illustrator 23.0.3, SVG Export Plug-In . SVG Version: 6.00 Build 0)  -->
<svg version="1.1" id="Layer_1" xmlns="http://www.w3.org/2000/svg" xmlns:xlink="http://www.w3.org/1999/xlink" x="0px" y="0px"
	 viewBox="0 0 64 64" style="enable-background:new 0 0 64 64;" xml:space="preserve">
<style type="text/css">
	.st0{fill:#56AF08;}
</style>
<path class="st0" d="M49.2,30.2h-0.2v-8.9c0-9.3-7.5-16.8-16.8-16.8c-9.3,0-16.8,7.5-16.8,16.8v1.9h7.4v-1.9c0-5.2,4.2-9.4,9.4-9.4
	c5.2,0,9.4,4.2,9.4,9.4v8.9H22.7h-7.4h-0.4c-2.4,0-4.4,2-4.4,4.4v24.4c0,2.4,2,4.4,4.4,4.4h34.1c2.4,0,4.4-2,4.4-4.4V34.6
	C53.5,32.2,51.6,30.2,49.2,30.2z M34.6,47.9c-0.3,0.3-0.4,0.5-0.4,0.9c0,1.8,0,3.6,0,5.4c0,0.7-0.3,1.5-1,1.8
	c-1.6,0.8-3.1-0.3-3.1-1.8v0c0-1.8,0-3.6,0-5.4c0-0.4-0.1-0.6-0.4-0.8c-1.6-1.2-2.2-3.2-1.3-5c0.8-1.8,2.7-2.8,4.5-2.4
	c2,0.4,3.4,2,3.5,4.1C36.3,46,35.8,47.1,34.6,47.9z"/>
</svg>
