<?xml version="1.0" encoding="utf-8"?>
<!-- Generator: Adobe Illustrator 23.0.1, SVG Export Plug-In . SVG Version: 6.00 Build 0)  -->
<svg version="1.1" id="Layer_1" xmlns="http://www.w3.org/2000/svg" xmlns:xlink="http://www.w3.org/1999/xlink" x="0px" y="0px"
	 viewBox="0 0 64 64" style="enable-background:new 0 0 64 64;" xml:space="preserve">
<style type="text/css">
	.st0{fill:#2069C2;}
</style>
<path class="st0" d="M62.4,20.1c-2.2-2.2-5.8-2.2-8,0c-0.7,0.7-5,5-5.6,5.6V10.9c0-1.5-0.6-2.9-1.6-4l-5.3-5.3
	c-1.1-1.1-2.5-1.6-4-1.6H5.6C2.5,0,0,2.5,0,5.6v52.8C0,61.5,2.5,64,5.6,64h37.5c3.1,0,5.6-2.5,5.6-5.6V41.7l13.6-13.6
	C64.5,25.9,64.5,22.3,62.4,20.1z M43.4,41.7l-1,1l-4,1.3l1.3-4l1-1L43.4,41.7z M46.1,39.1l-2.7-2.7c1.4-1.4,7.7-7.7,9-9l2.7,2.7
	L46.1,39.1z M39.2,4.3l5.3,5.3c0.6,0.6,0.5,1.2,0.5,1.6h-7.5V3.8C37.9,3.8,38.5,3.7,39.2,4.3z M43.1,60.3H5.6c-1,0-1.9-0.8-1.9-1.9
	V5.6c0-1,0.8-1.9,1.9-1.9h28.1v9.4c0,1,0.8,1.9,1.9,1.9H45v14.5L39.5,35l-2.7,2.7c-0.2,0.2-0.4,0.5-0.5,0.7l-2.7,8
	c-0.2,0.7,0,1.4,0.5,1.9s1.2,0.7,1.9,0.5l8-2.7c0.3-0.1,0.5-0.2,0.7-0.5l0.2-0.2v12.9C45,59.4,44.2,60.3,43.1,60.3z M59.7,25.4
	l-1.9,1.9l-2.7-2.7l1.9-1.9c0.7-0.7,1.9-0.7,2.7,0C60.4,23.5,60.4,24.7,59.7,25.4z"/>
<path class="st0" d="M9.4,25.5h26.3c1,0,1.9-0.8,1.9-1.9s-0.8-1.9-1.9-1.9H9.4c-1,0-1.9,0.8-1.9,1.9S8.3,25.5,9.4,25.5z"/>
<path class="st0" d="M9.4,34.8h18.8c1,0,1.9-0.8,1.9-1.9S29.3,31,28.2,31H9.4c-1,0-1.9,0.8-1.9,1.9C7.5,34,8.3,34.8,9.4,34.8z"/>
<path class="st0" d="M9.4,44.1h18.8c1,0,1.9-0.8,1.9-1.9s-0.8-1.9-1.9-1.9H9.4c-1,0-1.9,0.8-1.9,1.9S8.3,44.1,9.4,44.1z"/>
<path class="st0" d="M35.6,52.8H24.4c-1,0-1.9,0.8-1.9,1.9s0.8,1.9,1.9,1.9h11.3c1,0,1.9-0.8,1.9-1.9S36.7,52.8,35.6,52.8z"/>
</svg>
