<?xml version="1.0" encoding="utf-8"?>
<!-- Generator: Adobe Illustrator 23.1.0, SVG Export Plug-In . SVG Version: 6.00 Build 0)  -->
<svg version="1.1" id="Layer_1" xmlns="http://www.w3.org/2000/svg" xmlns:xlink="http://www.w3.org/1999/xlink" x="0px" y="0px"
	 viewBox="0 0 64 64" style="enable-background:new 0 0 64 64;" xml:space="preserve">
<style type="text/css">
	.st0{fill:#56AF08;}
	.st1{fill:#2069C2;}
</style>
<path class="st0" d="M49.3,63c-1.2,1.2-3.1,1.2-4.3,0l-6.7-6.7c-1.2-1.2-1.2-3.1,0-4.3c1.2-1.2,3.1-1.2,4.3,0l4,4
	c0.3,0.3,0.8,0.3,1.1,0L58.6,45c1.2-1.2,3.1-1.2,4.3,0c0.6,0.6,0.9,1.4,0.9,2.2s-0.3,1.6-0.9,2.2L49.3,63z"/>
<path class="st1" d="M24.8,0C11.1,0,0,11.1,0,24.8s11.1,24.8,24.8,24.8c13.7,0,24.8-11.1,24.8-24.8S38.5,0,24.8,0z M16.6,6
	c-1.1,1.5-2,3.3-2.7,5.3c-1.1-0.4-2.2-0.9-3.2-1.4C12.5,8.2,14.4,6.9,16.6,6z M8.8,12c1.3,0.8,2.8,1.4,4.3,2c-0.8,2.8-1.3,6-1.4,9.4
	H4.3C4.6,19.1,6.2,15.2,8.8,12z M4.3,26.2h7.4c0.1,3.1,0.5,6.1,1.2,8.7c-1.6,0.6-3.2,1.3-4.5,2.1C6.1,34,4.6,30.3,4.3,26.2z
	 M10.2,39.3c1.1-0.6,2.2-1.1,3.5-1.6c0.8,2.3,1.8,4.3,3,6C14.3,42.6,12.1,41.1,10.2,39.3z M23.4,45.3c-0.4,0-0.8-0.1-1.2-0.1
	c-2.3-1.4-4.4-4.4-5.8-8.3c2.2-0.6,4.5-0.9,6.9-1V45.3z M23.4,32.9c-2.7,0.1-5.3,0.5-7.7,1.1c-0.6-2.4-1-5.1-1.1-7.9h8.8V32.9z
	 M23.4,23.4h-8.8c0.1-3.1,0.6-6,1.3-8.6c2.4,0.6,4.9,1,7.6,1.1V23.4z M23.4,13c-2.3-0.1-4.6-0.4-6.7-0.9C18,8.5,20,5.8,22.1,4.4
	c0.4-0.1,0.8-0.1,1.2-0.1V13z M39.1,10.1c-0.9,0.4-1.8,0.8-2.8,1.2c-0.7-1.8-1.5-3.5-2.4-4.9C35.8,7.3,37.5,8.6,39.1,10.1z
	 M26.2,4.3c0.7,0,1.4,0.1,2.1,0.2c2.1,1.4,3.9,4,5.3,7.5c-2.3,0.6-4.8,0.9-7.3,1V4.3z M26.2,15.9c2.9-0.1,5.6-0.5,8.2-1.1
	c0.7,2.6,1.2,5.5,1.3,8.6h-9.5V15.9z M26.2,26.2h9.5c-0.1,2.8-0.5,5.4-1.1,7.9c-2.6-0.7-5.4-1.1-8.4-1.2V26.2z M28.2,45
	c-0.7,0.1-1.3,0.2-2,0.2v-9.5c2.6,0.1,5.2,0.4,7.6,1.1C32.4,40.6,30.5,43.6,28.2,45z M33.8,43.2c1-1.6,1.9-3.4,2.7-5.5
	c1.1,0.4,2.1,0.9,3,1.4C37.9,40.7,36,42.2,33.8,43.2z M41.4,36.8c-1.3-0.7-2.6-1.3-4.1-1.9c0.7-2.7,1.1-5.6,1.2-8.7h6.7
	C45,30.1,43.6,33.8,41.4,36.8z M38.5,23.4c-0.1-3.4-0.6-6.6-1.4-9.4c1.4-0.5,2.7-1.1,3.9-1.7c2.4,3.1,4,7,4.2,11.1H38.5z"/>
</svg>
