<?xml version="1.0" encoding="utf-8"?>
<!-- Generator: Adobe Illustrator 24.3.0, SVG Export Plug-In . SVG Version: 6.00 Build 0)  -->
<svg version="1.1" id="Layer_1" xmlns="http://www.w3.org/2000/svg" xmlns:xlink="http://www.w3.org/1999/xlink" x="0px" y="0px"
	 viewBox="0 0 65 10" style="enable-background:new 0 0 65 10;" xml:space="preserve">
<style type="text/css">
	.st0{fill:#ABAAAA;}
</style>
<path class="st0" d="M0.5,5.5l4.3,4.3c0.3,0.3,0.7,0.3,1,0c0.3-0.3,0.3-0.7,0-1c0,0,0,0,0,0L2.7,5.7H64c0.4,0,0.7-0.3,0.7-0.7
	c0-0.4-0.3-0.7-0.7-0.7c0,0,0,0,0,0H2.7l3.1-3.1c0.3-0.3,0.2-0.7,0-1C5.5,0,5.1,0,4.8,0.2L0.5,4.5C0.4,4.6,0.3,4.8,0.3,5
	C0.3,5.2,0.4,5.3,0.5,5.5z"/>
</svg>
