<?xml version="1.0" encoding="utf-8"?>
<!-- Generator: Adobe Illustrator 24.3.0, SVG Export Plug-In . SVG Version: 6.00 Build 0)  -->
<svg version="1.1" id="Layer_1" xmlns="http://www.w3.org/2000/svg" xmlns:xlink="http://www.w3.org/1999/xlink" x="0px" y="0px"
	 viewBox="0 0 64 64" style="enable-background:new 0 0 64 64;" xml:space="preserve">
<style type="text/css">
	.st0{fill:#FFFFFF;}
</style>
<g id="Group_38" transform="translate(-655 -137.861)">
	<g id="Group_9" transform="translate(655 137.861)">
		<path id="Path_19" class="st0" d="M18.4,23.9H0.6V6.2h6v7.4c10.2-14,29.8-17.2,43.8-7c8.1,5.9,13,15.4,13,25.4h-6
			C57.4,18,46.1,6.6,32,6.6c-8.5,0-16.5,4.3-21.2,11.4h7.6L18.4,23.9z"/>
		<path id="Path_20" class="st0" d="M45.6,40.1h17.8v17.8h-6v-7.4c-10.2,14-29.8,17.1-43.8,7C5.4,51.5,0.6,42.1,0.6,32h6
			C6.6,46,18,57.4,32,57.4c8.5,0,16.5-4.3,21.2-11.4h-7.6L45.6,40.1z"/>
	</g>
</g>
</svg>
