<?xml version="1.0" encoding="utf-8"?>
<!-- Generator: Adobe Illustrator 23.1.0, SVG Export Plug-In . SVG Version: 6.00 Build 0)  -->
<svg version="1.1" id="Layer_1" xmlns="http://www.w3.org/2000/svg" xmlns:xlink="http://www.w3.org/1999/xlink" x="0px" y="0px"
	 viewBox="0 0 64 64" style="enable-background:new 0 0 64 64;" xml:space="preserve">
<style type="text/css">
	.st0{fill:#2069C2;}
	.st1{fill:#56AF08;}
</style>
<g>
	<g>
		<path class="st0" d="M32.5,16.2c-9.6,0-17.4,7.8-17.4,17.4S22.9,51,32.5,51s17.4-7.8,17.4-17.4S42.1,16.2,32.5,16.2L32.5,16.2z
			 M32.5,47.4c-7.6,0-13.7-6.2-13.7-13.7s6.2-13.7,13.7-13.7s13.7,6.2,13.7,13.7S40.1,47.4,32.5,47.4L32.5,47.4z M32.5,47.4"/>
		<circle class="st0" cx="32.5" cy="34.6" r="3"/>
		<g>
			<path class="st0" d="M34,34.6V23.9c0-0.9-0.7-1.5-1.5-1.5s-1.5,0.7-1.5,1.5v10.6H34z"/>
			<path class="st0" d="M37,27.9l-6.6,6.6l2.2,2.2l6.6-6.6c0.6-0.6,0.6-1.6,0-2.2C38.5,27.3,37.6,27.3,37,27.9z"/>
		</g>
	</g>
	<g>
		<path class="st1" d="M32.5,4.2L32.5,4.2c-1.1,0-1.9,0.8-1.9,1.8s0.8,1.8,1.8,1.8h0.1V4.2z"/>
	</g>
	<path class="st1" d="M41,2.5l0.1,0.2l0,0l0,0l2.5,5.5l-5.5,2.5c0,0,0,0,0,0l0,0c0,0,0,0,0,0l0,0L37.3,11c-0.7,0.3-1.1,1.2-0.8,2
		c0.3,0.7,1.2,1.1,2,0.8l0.8-0.3l4.5-2l2.4-1.1c0.7-0.3,1.1-1.2,0.8-2l-0.8-1.7l-2.3-5.1l-0.1-0.2c-0.3-0.8-1.2-1.1-2-0.8
		C41,0.8,40.7,1.7,41,2.5z"/>
	<g>
		<path class="st1" d="M44,7.1h1.4c-3.9-1.9-8.2-2.9-12.8-2.9v3.7c4.1,0,8,1,11.5,2.7V7.1z"/>
	</g>
</g>
</svg>
