<?xml version="1.0" encoding="utf-8"?>
<!-- Generator: Adobe Illustrator 23.0.3, SVG Export Plug-In . SVG Version: 6.00 Build 0)  -->
<svg version="1.1" id="Layer_1" xmlns="http://www.w3.org/2000/svg" xmlns:xlink="http://www.w3.org/1999/xlink" x="0px" y="0px"
	 viewBox="0 0 64 64" style="enable-background:new 0 0 64 64;" xml:space="preserve">
<style type="text/css">
	.st0{fill:#C10F0F;}
</style>
<path class="st0" d="M60.4,29.4c-1.4,0-2.6,1.2-2.6,2.6c0,14.2-11.6,25.8-25.8,25.8S6.2,46.2,6.2,32S17.8,6.2,32,6.2
	c6.9,0,13.4,2.7,18.3,7.6c1,1,2.6,1,3.6,0s1-2.6,0-3.6C48.1,4.3,40.3,1,32,1C14.9,1,1,14.9,1,32s13.9,31,31,31s31-13.9,31-31
	C63,30.6,61.8,29.4,60.4,29.4z"/>
<path class="st0" d="M35.7,32l5.8-5.8c1-1,1-2.6,0-3.6c-1.1-1.1-2.7-1.1-3.7-0.1L32,28.3l-5.8-5.8c-1-1-2.6-1-3.6,0
	c-1.1,1.1-1.1,2.7-0.1,3.7l5.8,5.8l-5.8,5.8c-1,1-1,2.6,0,3.6c1.1,1.1,2.7,1.1,3.7,0.1l5.8-5.8l5.8,5.8c1,1,2.6,1,3.6,0
	c1.1-1.1,1.1-2.7,0.1-3.7L35.7,32z"/>
</svg>
